<?xml version="1.0" standalone="no"?>
<!DOCTYPE svg PUBLIC "-//W3C//DTD SVG 20010904//EN"
 "http://www.w3.org/TR/2001/REC-SVG-20010904/DTD/svg10.dtd">
<svg version="1.0" xmlns="http://www.w3.org/2000/svg"
 width="1280.000000pt" height="640.000000pt" viewBox="0 0 1280.000000 640.000000"
 preserveAspectRatio="xMidYMid meet">
<metadata>
Created by potrace 1.15, written by Peter Selinger 2001-2017
</metadata>
<g transform="translate(0.000000,640.000000) scale(0.100000,-0.100000)"
fill="#F0BF46" stroke="none">
<path d="M835 6003 c-394 -16 -685 -78 -726 -154 -7 -15 2 -72 40 -237 159
-694 202 -1036 171 -1366 -15 -153 -43 -290 -107 -521 -140 -507 -154 -582
-188 -1030 -40 -522 -23 -1267 36 -1565 27 -139 145 -570 165 -601 21 -34 165
-87 294 -108 123 -20 365 -32 500 -26 384 18 645 77 685 155 18 34 93 293 134
460 93 382 112 1183 46 1880 -24 255 -48 385 -116 630 -22 80 -56 201 -75 270
-19 69 -47 186 -61 260 -25 125 -27 154 -27 400 0 226 3 287 22 410 29 188 92
504 149 750 25 107 45 205 45 218 1 87 -211 148 -597 172 -151 9 -224 10 -390
3z m-190 -568 c172 -44 348 -32 696 50 101 24 185 42 187 40 6 -6 -309 -190
-413 -240 -146 -72 -249 -105 -323 -105 -51 0 -192 20 -258 36 -21 5 -21 5 -8
-48 88 -334 176 -795 209 -1091 19 -171 19 -400 0 -530 -30 -199 -70 -333
-235 -777 -108 -292 -147 -449 -174 -695 -23 -210 -36 -518 -39 -932 -1 -205
-5 -362 -9 -350 -19 59 -103 676 -134 982 -22 212 -25 627 -6 735 13 76 115
498 242 1001 88 349 110 475 117 669 10 277 -43 725 -146 1235 l-26 131 111
-43 c62 -23 156 -54 209 -68z"/>
<path d="M2695 4293 c-277 -13 -541 -60 -563 -99 -6 -11 5 -61 35 -153 68
-213 129 -428 154 -547 20 -91 24 -137 23 -279 -1 -208 -15 -268 -129 -555
-119 -299 -139 -378 -171 -689 -21 -190 -23 -616 -6 -779 27 -247 51 -337 149
-568 64 -151 67 -154 194 -183 344 -80 1196 -50 1327 47 26 19 101 184 151
331 92 273 114 769 56 1248 -30 246 -45 301 -162 597 -113 284 -126 344 -127
551 -1 226 30 371 168 800 40 121 52 173 45 182 -32 38 -214 75 -454 93 -126
9 -535 11 -690 3z m-213 -347 c189 -50 245 -58 398 -58 139 1 282 16 525 57
77 13 141 22 143 21 1 -2 -57 -28 -130 -58 -413 -172 -552 -202 -785 -167 -46
7 -85 10 -88 7 -3 -2 18 -71 45 -152 117 -348 169 -582 177 -791 8 -237 -21
-331 -213 -695 -206 -388 -230 -501 -241 -1108 -3 -188 -8 -341 -10 -338 -8 8
-71 294 -98 444 -43 241 -58 382 -59 547 0 180 11 239 86 434 22 58 69 189
105 291 35 102 84 241 108 310 66 190 79 267 72 440 -3 92 -15 196 -32 285
-28 151 -109 480 -131 533 -7 17 -11 32 -9 32 3 0 65 -16 137 -34z"/>
<path d="M4670 3519 c-272 -12 -474 -42 -511 -75 -15 -13 -11 -27 47 -171 131
-320 169 -476 162 -647 -7 -139 -29 -209 -136 -423 -87 -173 -112 -240 -136
-353 -66 -321 -66 -753 0 -1015 17 -64 129 -304 164 -348 37 -46 171 -71 466
-87 296 -16 735 4 909 41 110 23 115 28 187 172 97 194 117 265 138 497 19
215 9 423 -31 668 -27 162 -45 213 -149 427 -100 204 -129 290 -137 408 -10
156 31 328 154 637 36 91 68 171 70 178 8 20 -73 49 -187 66 -219 33 -619 43
-1010 25z m-125 -284 c250 -50 430 -50 819 0 105 14 191 23 193 22 5 -6 -344
-118 -462 -148 -143 -37 -304 -48 -439 -30 -48 7 -90 10 -92 8 -2 -1 14 -43
35 -93 179 -416 231 -690 168 -877 -33 -96 -62 -148 -200 -360 -112 -173 -154
-253 -181 -347 -32 -113 -48 -276 -55 -540 l-6 -265 -19 60 c-78 251 -139 570
-140 740 -1 139 11 185 99 376 30 63 63 138 73 165 11 27 49 112 84 189 141
306 152 405 77 713 -25 100 -101 349 -126 411 -4 10 0 12 18 8 13 -3 83 -18
154 -32z"/>
<path d="M6570 3129 c-235 -15 -400 -45 -400 -73 0 -7 23 -61 51 -120 120
-256 169 -415 169 -553 0 -139 -24 -208 -149 -427 -84 -146 -103 -193 -129
-316 -35 -160 -45 -288 -39 -493 6 -228 27 -340 85 -461 57 -119 128 -225 158
-236 188 -72 1175 -71 1415 1 33 10 46 23 83 83 108 174 136 253 162 451 30
220 3 566 -57 757 -12 37 -46 111 -76 165 -111 198 -132 239 -152 302 -59 181
-31 334 120 669 39 86 73 164 75 173 18 56 -307 90 -856 87 -184 0 -391 -5
-460 -9z m-65 -233 c232 -46 398 -55 630 -36 137 12 376 38 420 47 59 11 16
-7 -96 -41 -111 -34 -240 -68 -384 -102 -92 -21 -288 -29 -399 -15 -49 6 -91
10 -92 8 -1 -1 20 -48 47 -104 102 -212 170 -416 185 -548 14 -139 -37 -261
-204 -486 -129 -173 -174 -244 -200 -324 -34 -101 -53 -258 -59 -495 l-7 -225
-38 120 c-103 320 -145 602 -108 721 6 22 86 188 176 369 192 385 205 426 185
574 -20 138 -67 300 -150 509 -20 49 -20 53 -4 48 10 -2 54 -12 98 -20z"/>
<path d="M8565 2680 c-237 -16 -375 -38 -375 -61 0 -4 14 -32 31 -61 58 -98
139 -268 165 -345 34 -102 36 -212 4 -296 -12 -32 -64 -122 -116 -199 -101
-153 -125 -205 -155 -343 -29 -131 -37 -382 -15 -507 20 -118 36 -166 83 -243
65 -107 121 -173 155 -184 186 -60 1164 -60 1406 1 35 9 51 21 86 67 140 183
170 283 171 566 0 163 -3 205 -23 295 -35 152 -52 192 -156 348 -117 175 -139
228 -138 342 0 67 6 101 27 160 29 79 111 249 165 339 17 30 29 59 27 66 -6
14 -80 31 -197 45 -109 14 -975 21 -1145 10z m6 -202 c114 -19 172 -22 389
-22 224 0 506 18 620 40 18 3 21 2 10 -5 -18 -10 -231 -62 -395 -95 -207 -42
-295 -49 -438 -37 -71 6 -134 11 -142 11 -9 0 2 -26 32 -77 58 -98 122 -234
159 -338 36 -103 39 -225 7 -295 -27 -59 -90 -143 -197 -260 -198 -217 -230
-307 -243 -673 l-6 -179 -24 58 c-86 212 -138 432 -131 559 5 97 16 119 263
520 94 154 109 194 109 295 -1 101 -28 200 -105 376 -28 66 -53 125 -56 132
-7 16 -9 16 148 -10z"/>
<path d="M10675 2203 c-235 -9 -445 -30 -461 -45 -2 -3 30 -56 73 -119 204
-306 201 -379 -26 -642 -33 -37 -69 -89 -81 -114 -85 -181 -91 -490 -13 -641
16 -29 57 -86 93 -127 88 -99 91 -99 490 -115 298 -12 812 1 972 25 l93 14 52
58 c89 99 121 152 143 238 39 157 19 402 -43 539 -13 28 -65 101 -116 161
-113 134 -141 187 -141 272 0 97 42 186 183 387 21 30 36 59 33 64 -18 30
-418 52 -866 50 -173 -1 -346 -3 -385 -5z m-25 -168 c155 -17 429 -19 640 -5
80 5 183 12 230 15 l85 4 -95 -19 c-346 -72 -559 -96 -748 -83 -72 4 -131 6
-130 3 2 -3 38 -57 80 -120 42 -63 91 -148 108 -189 78 -182 50 -247 -197
-466 -186 -165 -215 -231 -230 -530 l-6 -130 -45 95 c-91 196 -130 361 -103
441 13 40 41 82 166 243 210 272 223 302 191 426 -17 69 -78 203 -127 283 -16
26 -29 50 -29 53 0 3 17 3 38 0 20 -4 98 -13 172 -21z"/>
</g>
</svg>
