<?xml version="1.0" standalone="no"?>
<!DOCTYPE svg PUBLIC "-//W3C//DTD SVG 1.0//EN" "http://www.w3.org/TR/2001/REC-SVG-20010904/DTD/svg10.dtd">
<svg xmlns="http://www.w3.org/2000/svg" xmlns:xlink="http://www.w3.org/1999/xlink" id="body_1" width="512" height="384">

<g transform="matrix(0.75 0 0 0.75 64.000015 -0)">
	<g>
        <path d="M373.041 210.167C 343.089 180.21501 302.106 170.546 302.106 103.94101C 302.105 57.744 325.289 0 325.289 0L325.289 0L186.696 0C 186.696 0 209.879 57.744 209.879 103.942C 209.879 170.547 168.897 180.215 138.945 210.168C 108.992004 240.121 90.47001 281.512 90.47001 327.217C 90.47001 356.22302 97.93101 383.484 111.03801 407.19C 124.16001 430.889 142.92902 451.026 165.51201 465.811L165.51201 465.811L256 465.811L346.473 465.811C 369.072 451.027 387.84 430.889 400.947 407.19C 414.069 383.484 421.531 356.223 421.531 327.217C 421.531 281.511 403.009 240.12 373.041 210.167z" stroke="none" fill="#9E9A90" fill-rule="nonzero" />
        <path d="M163.604 481.201L348.38 481.201L348.38 517.201L163.604 517.201z" stroke="none" fill="#bbbbbb" fill-rule="nonzero" />
	</g>
</g>
</svg>